{
  "accessors": [
    {
      "bufferView": 3,
      "componentType": 5126,
      "count": 4193,
      "max": [
        0.06464133411645889,
        0.10580110549926758,
        -0.006040653213858604
      ],
      "min": [
        -0.06478207558393478,
        -0.014499984681606293,
        -0.06049901247024536
      ],
      "type": "VEC3"
    },
    {
      "bufferView": 3,
      "byteOffset": 50316,
      "componentType": 5126,
      "count": 4193,
      "max": [
        0.9996075630187988,
        0.9999831318855286,
        0.999961256980896
      ],
      "min": [
        -0.9993802309036255,
        -0.9997662901878357,
        -0.9220810532569885
      ],
      "type": "VEC3"
    },
    {
      "bufferView": 4,
      "componentType": 5126,
      "count": 4193,
      "max": [
        0.9999303221702576,
        0.9999446868896484,
        0.9999690055847168,
        1.0
      ],
      "min": [
        -1.0,
        -0.9999545216560364,
        -0.9992185831069946,
        -1.0
      ],
      "type": "VEC4"
    },
    {
      "bufferView": 2,
      "componentType": 5126,
      "count": 4193,
      "max": [
        0.9944286942481995,
        0.9950945973396301
      ],
      "min": [
        0.004918496124446392,
        0.03390473127365112
      ],
      "type": "VEC2"
    },
    {
      "bufferView": 2,
      "byteOffset": 33544,
      "componentType": 5126,
      "count": 4193,
      "max": [
        0.9944286942481995,
        0.9950945973396301
      ],
      "min": [
        0.004918496124446392,
        0.03390473127365112
      ],
      "type": "VEC2"
    },
    {
      "bufferView": 2,
      "byteOffset": 67088,
      "componentType": 5126,
      "count": 4193,
      "max": [
        0.9944286942481995,
        0.9950945973396301
      ],
      "min": [
        0.004918496124446392,
        0.03390473127365112
      ],
      "type": "VEC2"
    },
    {
      "bufferView": 2,
      "byteOffset": 100632,
      "componentType": 5126,
      "count": 4193,
      "max": [
        0.9944286942481995,
        0.9950945973396301
      ],
      "min": [
        0.004918496124446392,
        0.03390473127365112
      ],
      "type": "VEC2"
    },
    {
      "bufferView": 2,
      "byteOffset": 134176,
      "componentType": 5126,
      "count": 4193,
      "max": [
        0.9944286942481995,
        0.9950945973396301
      ],
      "min": [
        0.004918496124446392,
        0.03390473127365112
      ],
      "type": "VEC2"
    },
    {
      "bufferView": 1,
      "componentType": 5125,
      "count": 18900,
      "type": "SCALAR"
    },
    {
      "bufferView": 3,
      "byteOffset": 100632,
      "componentType": 5126,
      "count": 240,
      "max": [
        0.02860996685922146,
        -0.016795247793197632,
        -0.022102585062384605
      ],
      "min": [
        -0.028609998524188995,
        -0.03653871640563011,
        -0.028955604881048203
      ],
      "type": "VEC3"
    },
    {
      "bufferView": 3,
      "byteOffset": 103512,
      "componentType": 5126,
      "count": 240,
      "max": [
        0.9777902960777283,
        0.99416583776474,
        0.9910851716995239
      ],
      "min": [
        -0.9775139093399048,
        -0.9938422441482544,
        -0.8793153762817383
      ],
      "type": "VEC3"
    },
    {
      "bufferView": 4,
      "byteOffset": 67088,
      "componentType": 5126,
      "count": 240,
      "max": [
        0.6768873929977417,
        0.9627605080604553,
        0.9877064824104309,
        1.0
      ],
      "min": [
        -0.9756026268005371,
        -0.9553902745246887,
        -0.9900038838386536,
        -1.0
      ],
      "type": "VEC4"
    },
    {
      "bufferView": 2,
      "byteOffset": 167720,
      "componentType": 5126,
      "count": 240,
      "max": [
        0.7412541508674622,
        0.99505615234375
      ],
      "min": [
        0.21392658352851868,
        0.018652617931365967
      ],
      "type": "VEC2"
    },
    {
      "bufferView": 2,
      "byteOffset": 169640,
      "componentType": 5126,
      "count": 240,
      "max": [
        0.7412541508674622,
        0.99505615234375
      ],
      "min": [
        0.21392658352851868,
        0.018652617931365967
      ],
      "type": "VEC2"
    },
    {
      "bufferView": 2,
      "byteOffset": 171560,
      "componentType": 5126,
      "count": 240,
      "max": [
        0.7412541508674622,
        0.99505615234375
      ],
      "min": [
        0.21392658352851868,
        0.018652617931365967
      ],
      "type": "VEC2"
    },
    {
      "bufferView": 2,
      "byteOffset": 173480,
      "componentType": 5126,
      "count": 240,
      "max": [
        0.7412541508674622,
        0.99505615234375
      ],
      "min": [
        0.21392658352851868,
        0.018652617931365967
      ],
      "type": "VEC2"
    },
    {
      "bufferView": 2,
      "byteOffset": 175400,
      "componentType": 5126,
      "count": 240,
      "max": [
        0.7412541508674622,
        0.99505615234375
      ],
      "min": [
        0.21392658352851868,
        0.018652617931365967
      ],
      "type": "VEC2"
    },
    {
      "bufferView": 1,
      "byteOffset": 75600,
      "componentType": 5125,
      "count": 1110,
      "type": "SCALAR"
    },
    {
      "bufferView": 3,
      "byteOffset": 106392,
      "componentType": 5126,
      "count": 1891,
      "max": [
        0.08136573433876038,
        0.013255974277853966,
        -0.016986671835184097
      ],
      "min": [
        -0.08163736760616302,
        -0.08534404635429382,
        -0.1323317289352417
      ],
      "type": "VEC3"
    },
    {
      "bufferView": 3,
      "byteOffset": 129084,
      "componentType": 5126,
      "count": 1891,
      "max": [
        0.9982710480690002,
        0.9917646646499634,
        0.9995588064193726
      ],
      "min": [
        -0.9991593956947327,
        -0.9999653697013855,
        -0.9891687631607056
      ],
      "type": "VEC3"
    },
    {
      "bufferView": 4,
      "byteOffset": 70928,
      "componentType": 5126,
      "count": 1891,
      "max": [
        0.9995212554931641,
        0.9957858920097351,
        0.9996280670166016,
        1.0
      ],
      "min": [
        -0.9886384010314941,
        -0.9647024273872375,
        -0.9998246431350708,
        -1.0
      ],
      "type": "VEC4"
    },
    {
      "bufferView": 2,
      "byteOffset": 177320,
      "componentType": 5126,
      "count": 1891,
      "max": [
        0.9929622411727905,
        0.9950935244560242
      ],
      "min": [
        0.004956529475748539,
        0.02491670846939087
      ],
      "type": "VEC2"
    },
    {
      "bufferView": 1,
      "byteOffset": 80040,
      "componentType": 5125,
      "count": 9159,
      "type": "SCALAR"
    },
    {
      "bufferView": 3,
      "byteOffset": 151776,
      "componentType": 5126,
      "count": 959,
      "max": [
        0.04172207787632942,
        -0.06902412325143814,
        -0.05473512411117554
      ],
      "min": [
        -0.044773101806640625,
        -0.12032707035541534,
        -0.10690784454345703
      ],
      "type": "VEC3"
    },
    {
      "bufferView": 3,
      "byteOffset": 163284,
      "componentType": 5126,
      "count": 959,
      "max": [
        0.9936370253562927,
        0.8127504587173462,
        0.9959107041358948
      ],
      "min": [
        -0.9942943453788757,
        -0.9874114394187927,
        -0.9086843132972717
      ],
      "type": "VEC3"
    },
    {
      "bufferView": 4,
      "byteOffset": 101184,
      "componentType": 5126,
      "count": 959,
      "max": [
        0.9959341287612915,
        0.9098573327064514,
        0.9785283207893372,
        1.0
      ],
      "min": [
        -0.9873992204666138,
        -0.9941293597221375,
        -0.9956679940223694,
        -1.0
      ],
      "type": "VEC4"
    },
    {
      "bufferView": 2,
      "byteOffset": 192448,
      "componentType": 5126,
      "count": 959,
      "max": [
        0.9632933735847473,
        0.9950907826423645
      ],
      "min": [
        0.09714049100875854,
        0.004957675933837891
      ],
      "type": "VEC2"
    },
    {
      "bufferView": 1,
      "byteOffset": 116676,
      "componentType": 5125,
      "count": 4404,
      "type": "SCALAR"
    },
    {
      "bufferView": 5,
      "componentType": 5126,
      "count": 6,
      "max": [
        1.0,
        0.0,
        0.0,
        0.0,
        0.0,
        1.0,
        1.4210854715202004e-14,
        0.0,
        0.0,
        3.5762786865234375e-07,
        1.0,
        0.0,
        0.0,
        0.1269986480474472,
        0.12742236256599426,
        1.0
      ],
      "min": [
        1.0,
        0.0,
        0.0,
        0.0,
        0.0,
        1.0,
        -3.4854718933274853e-07,
        0.0,
        0.0,
        0.0,
        1.0,
        0.0,
        0.0,
        -0.006304286886006594,
        0.0,
        1.0
      ],
      "type": "MAT4"
    },
    {
      "bufferView": 0,
      "componentType": 5123,
      "count": 1891,
      "type": "VEC4"
    },
    {
      "bufferView": 4,
      "byteOffset": 116528,
      "componentType": 5126,
      "count": 1891,
      "max": [
        1.0,
        0.0,
        0.0,
        0.0
      ],
      "min": [
        1.0,
        0.0,
        0.0,
        0.0
      ],
      "type": "VEC4"
    },
    {
      "bufferView": 0,
      "byteOffset": 15128,
      "componentType": 5123,
      "count": 959,
      "type": "VEC4"
    },
    {
      "bufferView": 4,
      "byteOffset": 146784,
      "componentType": 5126,
      "count": 959,
      "max": [
        1.0,
        0.49803921580314636,
        0.0,
        0.0
      ],
      "min": [
        0.501960813999176,
        0.0,
        0.0,
        0.0
      ],
      "type": "VEC4"
    }
  ],
  "asset": {
    "extras": {
      "author": "karn_matharoo (https://sketchfab.com/karn_matharoo)",
      "license": "CC-BY-4.0 (http://creativecommons.org/licenses/by/4.0/)",
      "source": "https://sketchfab.com/3d-models/valentinos-gltf-1407b593b9e444fdb304085c423fb833",
      "title": "Valentinos Gltf"
    },
    "generator": "Sketchfab-11.71.0",
    "version": "2.0"
  },
  "bufferViews": [
    {
      "buffer": 0,
      "byteLength": 22800,
      "byteStride": 8,
      "name": "shortBufferViews",
      "target": 34962
    },
    {
      "buffer": 0,
      "byteLength": 134292,
      "byteOffset": 22800,
      "name": "floatBufferViews",
      "target": 34963
    },
    {
      "buffer": 0,
      "byteLength": 200120,
      "byteOffset": 157092,
      "byteStride": 8,
      "name": "floatBufferViews",
      "target": 34962
    },
    {
      "buffer": 0,
      "byteLength": 174792,
      "byteOffset": 357212,
      "byteStride": 12,
      "name": "floatBufferViews",
      "target": 34962
    },
    {
      "buffer": 0,
      "byteLength": 162128,
      "byteOffset": 532004,
      "byteStride": 16,
      "name": "floatBufferViews",
      "target": 34962
    },
    {
      "buffer": 0,
      "byteLength": 384,
      "byteOffset": 694132,
      "name": "floatBufferViews"
    }
  ],
  "buffers": [
    {
      "byteLength": 694516,
      "uri": "scene.bin"
    }
  ],
  "images": [
    {
      "uri": "textures/material_0_baseColor.png"
    },
    {
      "uri": "textures/material_0_metallicRoughness.png"
    },
    {
      "uri": "textures/material_0_normal.png"
    }
  ],
  "materials": [
    {
      "name": "material_0",
      "normalTexture": {
        "index": 2
      },
      "occlusionTexture": {
        "index": 1
      },
      "pbrMetallicRoughness": {
        "baseColorTexture": {
          "index": 0
        },
        "metallicRoughnessTexture": {
          "index": 1
        }
      }
    }
  ],
  "meshes": [
    {
      "name": "Object_0",
      "primitives": [
        {
          "attributes": {
            "NORMAL": 1,
            "POSITION": 0,
            "TANGENT": 2,
            "TEXCOORD_0": 3,
            "TEXCOORD_1": 4,
            "TEXCOORD_2": 5,
            "TEXCOORD_3": 6,
            "TEXCOORD_4": 7
          },
          "indices": 8,
          "material": 0,
          "mode": 4
        }
      ]
    },
    {
      "name": "Object_1",
      "primitives": [
        {
          "attributes": {
            "NORMAL": 10,
            "POSITION": 9,
            "TANGENT": 11,
            "TEXCOORD_0": 12,
            "TEXCOORD_1": 13,
            "TEXCOORD_2": 14,
            "TEXCOORD_3": 15,
            "TEXCOORD_4": 16
          },
          "indices": 17,
          "material": 0,
          "mode": 4
        }
      ]
    },
    {
      "name": "Object_2",
      "primitives": [
        {
          "attributes": {
            "JOINTS_0": 29,
            "NORMAL": 19,
            "POSITION": 18,
            "TANGENT": 20,
            "TEXCOORD_0": 21,
            "TEXCOORD_1": 21,
            "TEXCOORD_2": 21,
            "TEXCOORD_3": 21,
            "TEXCOORD_4": 21,
            "WEIGHTS_0": 30
          },
          "indices": 22,
          "material": 0,
          "mode": 4
        }
      ]
    },
    {
      "name": "Object_3",
      "primitives": [
        {
          "attributes": {
            "JOINTS_0": 31,
            "NORMAL": 24,
            "POSITION": 23,
            "TANGENT": 25,
            "TEXCOORD_0": 26,
            "TEXCOORD_1": 26,
            "TEXCOORD_2": 26,
            "TEXCOORD_3": 26,
            "TEXCOORD_4": 26,
            "WEIGHTS_0": 32
          },
          "indices": 27,
          "material": 0,
          "mode": 4
        }
      ]
    }
  ],
  "nodes": [
    {
      "children": [
        1
      ],
      "matrix": [
        1.0,
        0.0,
        0.0,
        0.0,
        0.0,
        2.220446049250313e-16,
        -1.0,
        0.0,
        0.0,
        1.0,
        2.220446049250313e-16,
        0.0,
        0.0,
        0.0,
        0.0,
        1.0
      ],
      "name": "Sketchfab_model"
    },
    {
      "children": [
        2
      ],
      "name": "root"
    },
    {
      "children": [
        3,
        5,
        7
      ],
      "matrix": [
        1.0,
        0.0,
        0.0,
        0.0,
        0.0,
        2.220446049250313e-16,
        1.0,
        0.0,
        0.0,
        -1.0,
        2.220446049250313e-16,
        0.0,
        0.0,
        0.0,
        0.0,
        1.0
      ],
      "name": "GLTF_SceneRootNode"
    },
    {
      "children": [
        4
      ],
      "name": "Visor_0"
    },
    {
      "mesh": 0,
      "name": "Object_4"
    },
    {
      "children": [
        6
      ],
      "name": "Mouth_piece_1"
    },
    {
      "mesh": 1,
      "name": "Object_6"
    },
    {
      "children": [
        8
      ],
      "name": "Armature_2"
    },
    {
      "children": [
        9,
        11,
        13,
        10,
        12
      ],
      "name": "GLTF_created_0"
    },
    {
      "children": [
        14
      ],
      "name": "GLTF_created_0_rootJoint"
    },
    {
      "name": "Jaw_piece_3"
    },
    {
      "mesh": 2,
      "name": "Object_11",
      "skin": 0
    },
    {
      "name": "Neck_piece_4"
    },
    {
      "mesh": 3,
      "name": "Object_13",
      "skin": 0
    },
    {
      "children": [
        15,
        17
      ],
      "name": "bustA_5",
      "rotation": [
        1.7654376449627307e-07,
        0.0,
        0.0,
        1.0
      ],
      "translation": [
        0.0,
        0.00630433252081275,
        -0.12742234766483307
      ]
    },
    {
      "children": [
        16
      ],
      "name": "jawA_6",
      "rotation": [
        -1.0784782489281497e-07,
        0.0,
        0.0,
        1.0
      ],
      "translation": [
        0.0,
        -0.02541707456111908,
        6.6616925309404e-09
      ]
    },
    {
      "name": "jawEnd_7",
      "translation": [
        0.0,
        -0.06026975437998772,
        0.09459555894136429
      ]
    },
    {
      "children": [
        18
      ],
      "name": "bustB_8",
      "rotation": [
        -7.251146172393419e-08,
        0.0,
        0.0,
        1.0
      ],
      "translation": [
        0.0,
        -0.06008732318878174,
        3.844750295911581e-09
      ]
    },
    {
      "name": "bustC_9",
      "rotation": [
        -1.0176214004786743e-07,
        0.0,
        0.0,
        1.0
      ],
      "translation": [
        0.0,
        -0.07321613281965256,
        1.0946242134934892e-08
      ]
    }
  ],
  "samplers": [
    {
      "magFilter": 9729,
      "minFilter": 9987,
      "wrapS": 10497,
      "wrapT": 10497
    }
  ],
  "scene": 0,
  "scenes": [
    {
      "name": "Sketchfab_Scene",
      "nodes": [
        0
      ]
    }
  ],
  "skins": [
    {
      "inverseBindMatrices": 28,
      "joints": [
        9,
        14,
        15,
        16,
        17,
        18
      ],
      "skeleton": 9
    }
  ],
  "textures": [
    {
      "sampler": 0,
      "source": 0
    },
    {
      "sampler": 0,
      "source": 1
    },
    {
      "sampler": 0,
      "source": 2
    }
  ]
}
